<svg width="151" height="27" viewBox="0 0 151 27" fill="none" xmlns="http://www.w3.org/2000/svg">
<path d="M13.152 26.5742L5.99923 0H0L6.99481 26.6257H13.1379H13.166H19.1372L26.3039 0H20.3047L13.152 26.5742Z" fill="white"/>
<path d="M26.3636 20.9022C26.3636 16.5093 29.9645 15.2025 33.9749 14.8445C37.4975 14.5111 38.8826 14.345 38.8826 13.0768V12.9996C38.8826 11.3863 37.7876 10.4516 35.8748 10.4516C33.8568 10.4516 32.6565 11.412 32.2739 12.7188L27.0761 12.3094C27.854 8.72363 31.0467 6.46924 35.9017 6.46924C40.4129 6.46924 44.5028 8.44168 44.5028 13.1295V26.3972H39.1728V23.669H39.0148C38.0251 25.4999 36.0866 26.7681 33.0917 26.7681C29.2263 26.7681 26.3636 24.7957 26.3636 20.9022ZM38.9224 19.3662V17.2791C38.2497 17.7143 36.2445 17.9962 35.0173 18.1623C33.039 18.4314 31.7322 19.1872 31.7322 20.7232C31.7322 22.2219 32.9723 23.0034 34.7003 23.0034C37.1676 23.0034 38.9224 21.4275 38.9224 19.3662Z" fill="white"/>
<path d="M60.211 12.6416C59.9338 11.3734 58.7732 10.3369 56.8207 10.3369C55.0799 10.3369 53.7076 11.1055 53.7204 12.2836C53.7076 13.2312 54.406 13.8582 56.293 14.256L59.9607 14.9732C63.8915 15.7546 65.8043 17.458 65.8183 20.3009C65.8055 24.1814 62.0454 26.7809 56.7949 26.7809C51.4263 26.7809 48.1272 24.4634 47.5995 20.6975L53.1273 20.4155C53.4701 22.0159 54.8026 22.8489 56.8078 22.8489C58.7732 22.8489 60.0788 22.0159 60.1057 20.8507C60.08 19.8645 59.2751 19.2374 57.5074 18.8911L53.9989 18.2126C50.0411 17.444 48.1283 15.5359 48.1412 12.5901C48.1283 8.79962 51.5444 6.46802 56.7294 6.46802C61.8477 6.46802 64.8555 8.70954 65.3574 12.3339L60.211 12.6416Z" fill="white"/>
<path d="M79.7705 10.8236H75.9578V20.3524C75.9578 21.8639 76.7358 22.2734 77.8577 22.2734C78.3854 22.2734 78.9797 22.1459 79.2558 22.0944L80.139 26.1539C79.5716 26.3329 78.5433 26.6149 77.0914 26.6663C73.0155 26.8325 70.3107 24.9244 70.3376 21.0696V10.8236H67.5673V6.72547H70.3376V2.01196H75.9578V6.72547H79.7705V10.8236Z" fill="white"/>
<path d="M82.0237 16.6508C82.0237 10.5803 85.889 6.46924 91.852 6.46924C97.2078 6.46924 101.377 9.77302 101.377 16.459V17.9576H87.5772V17.9705C87.5772 20.9034 89.3578 22.7097 92.1679 22.7097C94.0409 22.7097 95.4927 21.9282 96.0601 20.4296L101.258 20.763C100.466 24.4131 97.0896 26.7821 92.0766 26.7821C85.8364 26.781 82.0237 22.8876 82.0237 16.6508ZM96.0859 14.5754C96.073 12.2321 94.3837 10.5416 91.9433 10.5416C89.4502 10.5416 87.6954 12.3351 87.576 14.5754H96.0859Z" fill="white"/>
<path d="M104.671 6.72555H110.119V10.158H110.329C111.068 7.72464 112.928 6.4436 115.197 6.4436C115.765 6.4436 116.463 6.52082 116.965 6.63547V11.4765C116.437 11.3104 115.369 11.1817 114.59 11.1817C112.11 11.1817 110.29 12.8464 110.29 15.267V26.3962H104.671V6.72555Z" fill="white"/>
<path d="M119.483 6.72555H124.931V10.158H125.141C125.88 7.72464 127.74 6.4436 130.009 6.4436C130.577 6.4436 131.275 6.52082 131.777 6.63547V11.4765C131.249 11.3104 130.181 11.1817 129.402 11.1817C126.922 11.1817 125.102 12.8464 125.102 15.267V26.3962H119.481V6.72555H119.483Z" fill="white"/>
<path d="M132.777 20.9022C132.777 16.5093 136.378 15.2025 140.389 14.8445C143.911 14.5111 145.296 14.345 145.296 13.0768V12.9996C145.296 11.3863 144.201 10.4516 142.289 10.4516C140.27 10.4516 139.07 11.412 138.688 12.7188L133.49 12.3094C134.268 8.72363 137.46 6.46924 142.315 6.46924C146.827 6.46924 150.917 8.44168 150.917 13.1295V26.3972H145.586V23.669H145.429C144.439 25.4999 142.5 26.7681 139.505 26.7681C135.64 26.7681 132.777 24.7957 132.777 20.9022ZM145.336 19.3662V17.2791C144.663 17.7143 142.658 17.9962 141.431 18.1623C139.453 18.4314 138.146 19.1872 138.146 20.7232C138.146 22.2219 139.386 23.0034 141.114 23.0034C143.581 23.0034 145.336 21.4275 145.336 19.3662Z" fill="white"/>
</svg>
