<svg xmlns="http://www.w3.org/2000/svg" xmlns:xlink="http://www.w3.org/1999/xlink" width="229.288" height="31" viewBox="0 0 229.288 31">
  <defs>
    <linearGradient id="linear-gradient" x1="0.5" x2="0.5" y2="1" gradientUnits="objectBoundingBox">
      <stop offset="0" stop-color="#ffb522"/>
      <stop offset="1" stop-color="#7e5a23"/>
    </linearGradient>
    <linearGradient id="linear-gradient-2" x1="0.5" x2="0.5" y2="1" gradientUnits="objectBoundingBox">
      <stop offset="0" stop-color="#fad68f"/>
      <stop offset="1" stop-color="#8c6932"/>
    </linearGradient>
    <linearGradient id="linear-gradient-3" x1="0.5" x2="0.5" y2="1" gradientUnits="objectBoundingBox">
      <stop offset="0" stop-color="#e3e3e3"/>
      <stop offset="1" stop-color="#9f9f9f"/>
    </linearGradient>
  </defs>
  <g id="Group_2166" data-name="Group 2166" transform="translate(-153 -77)">
    <path id="Path_4357" data-name="Path 4357" d="M1.411-12.155V0H4.148V-4.42H5.7A5.3,5.3,0,0,0,9.01-5.355a3.415,3.415,0,0,0,1.241-2.856v-.068c0-2.584-1.666-3.876-4.641-3.876ZM5.542-6.341H4.148v-3.723H5.542c1.309,0,2.057.51,2.057,1.8v.068C7.6-6.97,6.919-6.341,5.542-6.341Zm6.511-5.814V0h8.194V-2.142H14.79V-5.168h4.148V-7.174H14.79v-2.839h5.185v-2.142Zm10.013,0V0H24.82V-9.979H29.7v-2.176ZM31.535,0h2.754l5.1-8.568V0h2.754V-12.155H39.389l-5.1,8.5v-8.5H31.535ZM50.524-2.006a3.129,3.129,0,0,1-2.448-1.088,4.291,4.291,0,0,1-.969-2.924v-.136a4.421,4.421,0,0,1,.9-2.924,3.143,3.143,0,0,1,2.482-1.071,3.149,3.149,0,0,1,2.5,1.105,4.559,4.559,0,0,1,.884,2.873v.136a4.58,4.58,0,0,1-.9,2.924A3.118,3.118,0,0,1,50.524-2.006ZM50.473.187a6.238,6.238,0,0,0,4.556-1.768,6.282,6.282,0,0,0,1.717-4.488V-6.2a6.124,6.124,0,0,0-1.751-4.437,6.346,6.346,0,0,0-4.505-1.683,6.252,6.252,0,0,0-4.471,1.734,6.015,6.015,0,0,0-1.785,4.454V-6a6.163,6.163,0,0,0,1.7,4.42A6.17,6.17,0,0,0,50.473.187Zm8.262-12.342V0h2.754V-5.015h4.879V0h2.754V-12.155H66.368v4.964H61.489v-4.964ZM79.475.187c2.924,0,4.947-1.479,4.947-3.757A2.613,2.613,0,0,0,81.94-6.307a2.561,2.561,0,0,0,2.04-2.686c0-1.955-1.751-3.332-4.369-3.332-2.669,0-4.4,1.36-4.726,4.029h2.6c.221-1.207.765-1.853,2.057-1.853,1.02,0,1.666.493,1.666,1.445,0,1-.459,1.53-1.683,1.53H78.3v1.819h1.292c1.411,0,1.955.493,1.955,1.581,0,1.105-.7,1.751-2.04,1.751A2.149,2.149,0,0,1,77.18-4.1H74.562A4.536,4.536,0,0,0,79.475.187ZM92.123-2.006a3.129,3.129,0,0,1-2.448-1.088,4.291,4.291,0,0,1-.969-2.924v-.136a4.421,4.421,0,0,1,.9-2.924,3.143,3.143,0,0,1,2.482-1.071,3.149,3.149,0,0,1,2.5,1.105,4.559,4.559,0,0,1,.884,2.873v.136a4.58,4.58,0,0,1-.9,2.924A3.118,3.118,0,0,1,92.123-2.006ZM92.072.187a6.238,6.238,0,0,0,4.556-1.768,6.282,6.282,0,0,0,1.717-4.488V-6.2a6.124,6.124,0,0,0-1.751-4.437,6.346,6.346,0,0,0-4.5-1.683,6.252,6.252,0,0,0-4.471,1.734,6.015,6.015,0,0,0-1.785,4.454V-6a6.163,6.163,0,0,0,1.7,4.42A6.17,6.17,0,0,0,92.072.187ZM103.36-4.488c.187-1.751.221-3.774.272-5.491h3.315V0H109.7V-12.155H101.15c0,2.737-.034,5.151-.221,7.072s-.6,2.907-1.5,2.907a2.005,2.005,0,0,1-.374-.034c-.051-.017-.085-.017-.1-.034V0l.255.1a2.416,2.416,0,0,0,.7.085C102.289.187,103.088-1.768,103.36-4.488Zm14.7,2.482a3.129,3.129,0,0,1-2.448-1.088,4.291,4.291,0,0,1-.969-2.924v-.136a4.421,4.421,0,0,1,.9-2.924,3.143,3.143,0,0,1,2.482-1.071,3.149,3.149,0,0,1,2.5,1.105,4.559,4.559,0,0,1,.884,2.873v.136a4.58,4.58,0,0,1-.9,2.924A3.118,3.118,0,0,1,118.065-2.006ZM118.014.187a6.238,6.238,0,0,0,4.556-1.768,6.282,6.282,0,0,0,1.717-4.488V-6.2a6.124,6.124,0,0,0-1.751-4.437,6.346,6.346,0,0,0-4.5-1.683,6.252,6.252,0,0,0-4.471,1.734,6.015,6.015,0,0,0-1.785,4.454V-6a6.163,6.163,0,0,0,1.7,4.42A6.17,6.17,0,0,0,118.014.187Zm10.132-10.2V0h2.771V-10.013H134.2v-2.142h-9.333v2.142Zm12.92,8.007a3.129,3.129,0,0,1-2.448-1.088,4.291,4.291,0,0,1-.969-2.924v-.136a4.421,4.421,0,0,1,.9-2.924,3.143,3.143,0,0,1,2.482-1.071,3.149,3.149,0,0,1,2.5,1.105,4.559,4.559,0,0,1,.884,2.873v.136a4.58,4.58,0,0,1-.9,2.924A3.118,3.118,0,0,1,141.066-2.006ZM141.015.187a6.238,6.238,0,0,0,4.556-1.768,6.282,6.282,0,0,0,1.717-4.488V-6.2a6.124,6.124,0,0,0-1.751-4.437,6.346,6.346,0,0,0-4.505-1.683,6.252,6.252,0,0,0-4.471,1.734,6.015,6.015,0,0,0-1.785,4.454V-6a6.163,6.163,0,0,0,1.7,4.42A6.17,6.17,0,0,0,141.015.187Z" transform="translate(235 98)" fill="#fff"/>
    <circle id="Ellipse_57" data-name="Ellipse 57" cx="15.5" cy="15.5" r="15.5" transform="translate(194 77)" fill="url(#linear-gradient)"/>
    <circle id="Ellipse_55" data-name="Ellipse 55" cx="15.5" cy="15.5" r="15.5" transform="translate(174 77)" fill="url(#linear-gradient-2)"/>
    <circle id="Ellipse_56" data-name="Ellipse 56" cx="15.5" cy="15.5" r="15.5" transform="translate(153 77)" fill="url(#linear-gradient-3)"/>
  </g>
</svg>
