<svg width="34" height="34" viewBox="0 0 34 34" fill="none" xmlns="http://www.w3.org/2000/svg">
<path d="M17 0C12.2643 0 8.01429 1.94286 4.97857 4.97857C1.94286 8.01429 0 12.2643 0 17C0 26.35 7.65 34 17 34C21.7357 34 25.9857 32.0571 29.0214 29.0214C32.0571 25.9857 34 21.7357 34 17C34 7.65 26.35 0 17 0ZM27.5643 23.5571C27.0786 23.6786 24.4071 23.5571 24.2857 23.5571C23.5571 23.5571 22.95 23.3143 22.4643 22.8286C21.8571 22.3429 21.3714 21.7357 20.8857 21.1286C20.7643 21.0071 20.5214 20.7643 20.4 20.6429C19.9143 20.2786 19.55 20.4 19.3071 20.8857C19.1857 21.3714 18.9429 22.4643 18.9429 22.5857C18.9429 23.0714 18.5786 23.4357 17.9714 23.4357C16.2714 23.5571 14.6929 23.3143 13.2357 22.5857C12.0214 21.8571 10.9286 21.0071 10.0786 19.7929C8.74286 17.9714 7.65 16.0286 6.55714 14.0857C6.55714 13.9643 5.46429 11.7786 5.46429 11.6571C5.34286 11.2929 5.46429 11.05 5.70714 10.9286C6.07143 10.9286 9.35 10.9286 9.47143 10.9286C9.95714 10.9286 10.3214 11.1714 10.5643 11.7786C11.1714 13.3571 12.0214 14.8143 13.1143 16.15C13.2357 16.2714 13.4786 16.5143 13.6 16.6357C13.8429 16.7571 14.0857 16.7571 14.2071 16.3929C14.3286 16.0286 14.45 15.4214 14.45 15.0571C14.45 14.2071 14.45 13.6 14.45 12.6286C14.45 12.0214 14.2071 11.5357 13.3571 11.4143C13.1143 11.4143 13.1143 11.1714 13.2357 10.9286C13.6 10.4429 14.0857 10.4429 14.5714 10.4429C15.4214 10.4429 16.2714 10.4429 17.1214 10.4429C17.4857 10.4429 17.85 10.4429 18.2143 10.5643C18.7 10.6857 18.9429 10.9286 18.9429 11.4143C18.9429 11.6571 18.9429 11.9 18.9429 12.1429C18.9429 13.1143 18.8214 14.0857 18.8214 15.0571C18.8214 15.4214 18.8214 15.7857 18.9429 16.2714C19.0643 16.7571 19.4286 16.8786 19.7929 16.5143C20.2786 16.0286 20.6429 15.5429 21.0071 14.9357C21.7357 13.9643 22.2214 12.8714 22.7071 11.6571C22.95 11.05 23.0714 10.9286 23.8 10.9286C25.0143 10.9286 26.1071 10.9286 27.3214 10.9286C27.5643 10.9286 27.6857 10.9286 27.9286 11.05C28.2929 11.1714 28.4143 11.4143 28.2929 11.7786C28.1714 12.5071 27.6857 13.2357 27.2 13.8429C26.4714 14.8143 25.7429 15.9071 25.0143 16.8786C24.8929 17 24.8929 17.1214 24.7714 17.2429C24.5286 17.7286 24.5286 17.9714 24.8929 18.4571C25.5 19.0643 26.2286 19.7929 26.8357 20.4C27.3214 20.8857 27.6857 21.3714 28.05 21.9786C28.6571 22.7071 28.4143 23.4357 27.5643 23.5571Z" fill="#222A30"/>
</svg>
